<svg width="32" height="42" viewBox="0 0 32 42" fill="none" xmlns="http://www.w3.org/2000/svg">
<path d="M16 20.4951C16.9667 20.4951 17.7917 20.1502 18.475 19.4603C19.1583 18.7704 19.5 17.9374 19.5 16.9615C19.5 15.9855 19.1583 15.1526 18.475 14.4627C17.7917 13.7728 16.9667 13.4278 16 13.4278C15.0333 13.4278 14.2083 13.7728 13.525 14.4627C12.8417 15.1526 12.5 15.9855 12.5 16.9615C12.5 17.9374 12.8417 18.7704 13.525 19.4603C14.2083 20.1502 15.0333 20.4951 16 20.4951ZM16 37.2043C20.4333 33.1321 23.7083 29.4386 25.825 26.1237C27.9417 22.8088 29 19.8893 29 17.3653C29 13.3942 27.7417 10.1466 25.225 7.62252C22.7083 5.09848 19.6333 3.83646 16 3.83646C12.3667 3.83646 9.29167 5.09848 6.775 7.62252C4.25833 10.1466 3 13.3942 3 17.3653C3 19.8893 4.08333 22.8088 6.25 26.1237C8.41667 29.4386 11.6667 33.1321 16 37.2043ZM16 41.1922C10.6333 36.5817 6.625 32.2992 3.975 28.3449C1.325 24.3906 0 20.7307 0 17.3653C0 12.3172 1.60833 8.2956 4.825 5.30041C8.04167 2.30521 11.7667 0.807617 16 0.807617C20.2333 0.807617 23.9583 2.30521 27.175 5.30041C30.3917 8.2956 32 12.3172 32 17.3653C32 20.7307 30.675 24.3906 28.025 28.3449C25.375 32.2992 21.3667 36.5817 16 41.1922Z" fill="#93A889"/>
</svg>
