<svg width="50" height="50" viewBox="0 0 50 50" fill="none" xmlns="http://www.w3.org/2000/svg">
<g clip-path="url(#clip0_5_815)">
<path d="M46.6255 19.2135H44.7027C44.1849 10.1992 37.5904 2.78636 28.9627 1.02088C28.7036 0.420539 28.1066 0 27.4112 0H22.5888C21.8933 0 21.2965 0.420539 21.0372 1.02088C12.4098 2.78636 5.81536 10.1992 5.29752 19.2135H3.37462C2.44162 19.2135 1.68506 19.9699 1.68506 20.903V26.037C1.68506 26.97 2.44146 27.7266 3.37462 27.7266H6.11418V27.7269C6.11418 28.8603 6.21637 29.9891 6.41822 31.0973L3.82563 32.5943C3.43758 32.8183 3.15442 33.1872 3.03843 33.6202C2.92243 34.053 2.98321 34.5141 3.20728 34.9022L7.78152 42.8247C8.24819 43.6327 9.28119 43.9099 10.0894 43.4431L12.6856 41.9443C14.4113 43.4128 16.3941 44.5594 18.5199 45.3177V48.3106C18.5199 49.2436 19.2763 50.0002 20.2095 50.0002H29.3578C30.2908 50.0002 31.0473 49.2438 31.0473 48.3106V45.3177C33.1731 44.5594 35.1559 43.4128 36.8819 41.9443L39.478 43.4431C40.2864 43.9098 41.3194 43.6327 41.7859 42.8247L46.36 34.9022C46.8266 34.0941 46.5497 33.0609 45.7416 32.5943L43.149 31.0973C43.3512 29.9891 43.4532 28.8603 43.4532 27.7269V27.7266H46.6261C47.5591 27.7266 48.3157 26.9702 48.3157 26.037V20.903C48.315 19.97 47.5585 19.2135 46.6255 19.2135ZM25.7218 3.37896V14.467H24.2785V3.37896H25.7218ZM13.6659 8.57525V16.1566C13.6659 17.0896 14.4223 17.8461 15.3554 17.8461C16.2886 17.8461 17.045 17.0897 17.045 16.1566V6.06987C18.245 5.39916 19.5386 4.87778 20.8995 4.52508V16.1566C20.8995 17.0896 21.6559 17.8461 22.5891 17.8461H27.4115C28.3445 17.8461 29.101 17.0897 29.101 16.1566V4.52508C30.462 4.87778 31.7556 5.39916 32.9558 6.06987V16.1566C32.9558 17.0896 33.7122 17.8461 34.6453 17.8461C35.5783 17.8461 36.3349 17.0897 36.3349 16.1566V8.57542C39.1719 11.305 41.0248 15.0473 41.3144 19.2135H8.68641C8.97597 15.0471 10.829 11.305 13.6659 8.57525ZM40.0736 27.7268C40.0736 29.0126 39.9137 30.2906 39.5984 31.5251C39.4108 32.2588 39.7347 33.0278 40.3904 33.4064L42.5884 34.6754L39.7039 39.6717L37.5014 38.4002C36.845 38.0214 36.0167 38.1256 35.4751 38.6556C33.6364 40.4544 31.364 41.7682 28.9032 42.4549C28.1729 42.6586 27.6679 43.3241 27.6679 44.0821V46.6207H21.8985V44.0825C21.8985 43.3244 21.3935 42.6589 20.6632 42.4552C18.2024 41.7685 15.93 40.4547 14.0915 38.6561C13.5499 38.1258 12.7213 38.0219 12.0652 38.4005L9.86267 39.6721L6.97816 34.6756L9.1763 33.4066C9.8322 33.0279 10.1559 32.2591 9.96839 31.5252C9.6529 30.2906 9.49314 29.0128 9.49314 27.7269V27.7266H14.6884V27.7269C14.6884 33.2933 19.2169 37.8219 24.7834 37.8219C30.3499 37.8219 34.8783 33.2934 34.8783 27.7269V27.7266H40.0736V27.7268ZM26.8086 27.7268C26.8086 28.8436 25.9 29.7522 24.7832 29.7522C23.6664 29.7522 22.7578 28.8436 22.7578 27.7268V27.7264H26.8086V27.7268ZM24.7832 33.1311C27.7632 33.1311 30.1876 30.7067 30.1876 27.7268V27.7264H31.4992V27.7268C31.4992 31.43 28.4864 34.4426 24.7832 34.4426C21.08 34.4426 18.0674 31.43 18.0674 27.7268V27.7264H19.3788V27.7268C19.3788 30.7067 21.8032 33.1311 24.7832 33.1311ZM44.9361 24.3475H5.06401V22.5924H44.9361V24.3475Z" fill="#93A889"/>
</g>
<defs>
<clipPath id="clip0_5_815">
<rect width="50" height="50" fill="white"/>
</clipPath>
</defs>
</svg>
