<svg width="21" height="21" viewBox="0 0 21 21" fill="none" xmlns="http://www.w3.org/2000/svg">
<path d="M5.96451 1.125H3.09868C2.00865 1.125 1.125 2.00865 1.125 3.09868C1.125 12.364 8.63601 19.875 17.9013 19.875C18.9914 19.875 19.875 18.9914 19.875 17.9013V15.0355C19.875 14.1836 19.3564 13.4175 18.5654 13.1012L15.8199 12.003C15.1094 11.7188 14.3003 11.8469 13.7125 12.3368L13.0032 12.9279C12.1755 13.6177 10.9583 13.5625 10.1964 12.8005L8.19946 10.8036C7.43755 10.0417 7.38233 8.82453 8.07214 7.99677L8.66317 7.28753C9.15305 6.69967 9.28123 5.89057 8.99703 5.18008L7.89884 2.4346C7.58246 1.64365 6.8164 1.125 5.96451 1.125Z" stroke="#93A889" stroke-width="2" stroke-linecap="round" stroke-linejoin="round"/>
</svg>
