<svg width="50" height="50" viewBox="0 0 50 50" fill="none" xmlns="http://www.w3.org/2000/svg">
<g clip-path="url(#clip0_5_805)">
<path d="M25 0C11.215 0 0 11.2152 0 25.0002C0 38.7852 11.215 50 25 50C38.785 50 50 38.7852 50 25.0002C50 11.2152 38.785 0 25 0ZM25 45.4545C13.7212 45.4545 4.54545 36.2788 4.54545 25.0002C4.54545 13.7215 13.7212 4.54545 25 4.54545C36.2788 4.54545 45.4545 13.7215 45.4545 25.0002C45.4545 36.2788 36.2786 45.4545 25 45.4545Z" fill="#93A889"/>
<path d="M24.9997 10.606C23.3291 10.606 21.97 11.966 21.97 13.6376C21.97 15.3078 23.3291 16.6666 24.9997 16.6666C26.6703 16.6666 28.0294 15.3078 28.0294 13.6376C28.0294 11.966 26.6703 10.606 24.9997 10.606Z" fill="#93A889"/>
<path d="M25 21.2119C23.7449 21.2119 22.7273 22.2295 22.7273 23.4846V37.121C22.7273 38.3762 23.7449 39.3937 25 39.3937C26.2552 39.3937 27.2727 38.3762 27.2727 37.121V23.4846C27.2727 22.2295 26.2552 21.2119 25 21.2119Z" fill="#93A889"/>
</g>
<defs>
<clipPath id="clip0_5_805">
<rect width="50" height="50" fill="white"/>
</clipPath>
</defs>
</svg>
