<svg width="50" height="50" viewBox="0 0 50 50" fill="none" xmlns="http://www.w3.org/2000/svg">
<g clip-path="url(#clip0_5_793)">
<path d="M49.7673 39.5247L41.4163 25.0598C41.1915 24.6705 40.6292 24.6841 40.4174 25.0806C37.9959 29.6133 33.7591 32.7729 28.8841 33.875C28.5106 33.9595 28.3275 34.3835 28.5189 34.7152L35.9141 47.524C36.6442 48.7886 38.5157 48.6128 39.006 47.2465L41.2997 40.8558L47.9811 42.0638C49.4116 42.3222 50.4946 40.7844 49.7673 39.5247Z" fill="#93A889"/>
<path d="M21.1159 33.8751C16.2392 32.7725 12.003 29.6112 9.58258 25.0807C9.37076 24.6841 8.80846 24.6705 8.58366 25.0598L0.232599 39.5247C-0.49406 40.7833 0.587286 42.3222 2.01863 42.0637L8.69996 40.8557L10.9937 47.2464C11.484 48.6123 13.3554 48.7888 14.0856 47.524L21.4808 34.7151C21.6724 34.3834 21.4894 33.9595 21.1159 33.8751Z" fill="#93A889"/>
<path d="M39.1426 22.4181V22.418C40.9958 17.7375 40.4088 12.4517 37.5726 8.2785C31.5395 -0.599117 18.4595 -0.596675 12.4284 8.27762C9.59171 12.4517 9.00431 17.7378 10.8573 22.4181C15.9323 35.2336 34.0917 35.1737 39.1426 22.4181ZM33.3585 16.4389L30.4204 19.3027L31.1139 23.3465C31.3551 24.7531 29.8735 25.8035 28.6315 25.1502L25 23.241L21.3684 25.1502C20.1159 25.8087 18.6466 24.7423 18.8859 23.3466L19.5795 19.3028L16.6414 16.439C15.6281 15.4511 16.1884 13.7244 17.5895 13.5209L21.6498 12.9308L23.4655 9.25165C24.0918 7.98251 25.9073 7.98182 26.534 9.25165L28.3497 12.9308L32.4099 13.5209C33.8106 13.7242 34.3723 15.4506 33.3585 16.4389Z" fill="#93A889"/>
</g>
<defs>
<clipPath id="clip0_5_793">
<rect width="50" height="50" fill="white"/>
</clipPath>
</defs>
</svg>
