<svg width="50" height="50" viewBox="0 0 50 50" fill="none" xmlns="http://www.w3.org/2000/svg">
<path d="M40.0412 28.8213L36.6759 34.0387L34.4475 33.1396L26.6818 47.3045H35.805L39.8027 42.0049H43.2351L46.9077 47.3045H50L42.9215 29.6021L40.0412 28.8213Z" fill="#93A889"/>
<path d="M42.773 42.8882H40.2435L36.9117 47.3045H45.8336L42.773 42.8882Z" fill="#93A889"/>
<path d="M3.54545 38.826L0.921277 47.3045H4.56473L7.47948 38.8604L8.31153 32.2889H11.0876L13.5856 39.0989L12.0593 47.3045H15.595L17.3333 38.0108L15.595 33.1121L14.9635 30.8961L24.5293 36.3158L22.7345 39.4319L26.9026 41.8335L31.3118 34.1801L27.1437 31.7784L25.4116 34.7851L14.2736 28.475L13.673 26.3658L14.7656 21.9397L15.2364 25.9851L15.9926 27.9486L18.9762 29.6931L17.7388 25.2962L16.7822 16.8486L13.6908 16.7214L13.1475 15.2269C15.2188 14.8037 16.7778 13.0187 16.8926 10.8511L7.58654 9.61719C7.51856 9.93512 7.47967 10.2646 7.47967 10.6029C7.47967 12.2361 8.30996 13.6749 9.57125 14.522L9.48913 14.5131L7.62635 16.0791L5.23975 15.8787L0 20.4594V27.4311L4.162 28.4592L3.54545 38.826ZM2.64985 24.8987V22.8168L4.41638 21.2031V25.2962L2.64985 24.8987Z" fill="#93A889"/>
<path d="M16.8519 9.95453L18.266 10.1418C18.4542 5.93828 16.6276 3.18775 13.3206 2.74965C13.0494 2.71344 12.7809 2.6958 12.515 2.6958C9.58614 2.6958 7.45475 4.83947 6.62012 8.59774L7.8523 8.76113L16.8519 9.95453Z" fill="#93A889"/>
</svg>
