<svg width="50" height="50" viewBox="0 0 50 50" fill="none" xmlns="http://www.w3.org/2000/svg">
<path d="M46.25 25.0582C46.25 15.3609 39.6973 6.90389 30.3027 4.49178C29.4043 4.25741 28.4863 4.80428 28.2617 5.70272C28.0274 6.60116 28.5742 7.51913 29.4727 7.74374C37.3731 9.76522 42.8906 16.8941 42.8906 25.0582C42.8906 32.2555 38.6035 38.6324 32.1875 41.4351L33.7403 37.8219C34.1016 36.9722 33.711 35.9859 32.8613 35.6148C32.0117 35.2535 31.0254 35.6441 30.6543 36.4937L27.627 43.5445C27.2656 44.3941 27.6563 45.3805 28.5059 45.7515L35.5567 48.7789C36.6113 49.15 37.4903 48.5348 37.7637 47.9C38.125 47.0504 37.7344 46.064 36.8848 45.693L33.8184 44.3746C41.2891 40.9957 46.25 33.4957 46.25 25.0582Z" fill="#93A889"/>
<path d="M20.5469 42.3729C12.6465 40.3416 7.12891 33.2225 7.12891 25.0584C7.12891 17.9588 11.2988 11.66 17.5684 8.79866L16.1133 12.1776C15.752 13.0272 16.123 14.0526 16.9922 14.3846C18.0078 14.7655 18.8672 14.3065 19.1992 13.5057L22.2266 6.44514C22.5195 5.76155 22.5098 4.73616 21.3477 4.23811L14.2969 1.21077C13.4473 0.849441 12.4609 1.24007 12.0898 2.08968C11.7285 2.93928 12.1191 3.92561 12.9688 4.29671L16.25 5.70296C8.75 9.09163 3.76953 16.6014 3.76953 25.0584C3.76953 34.7557 10.332 43.203 19.7168 45.6248C20.8496 45.9178 21.5625 45.1756 21.7578 44.4139C21.9824 43.5155 21.4453 42.6073 20.5469 42.3729Z" fill="#93A889"/>
<path d="M28.9648 31.3867C29.8242 30.4883 30.2539 29.3555 30.2539 28.0078C30.2539 27.3926 30.1465 26.8262 29.9414 26.2988C29.7363 25.7715 29.4434 25.3223 29.0625 24.9316C28.6816 24.5508 28.1836 24.2285 27.5781 23.9551C27.2559 23.8184 26.6113 23.623 25.625 23.3789V17.7734C26.2598 17.9004 26.7578 18.1738 27.1289 18.584C27.4902 18.9941 27.7344 19.5801 27.8516 20.3418L29.8633 20.0391C29.6875 18.8086 29.1797 17.832 28.3301 17.1289C27.666 16.5723 26.7676 16.2402 25.6348 16.1328V15.2051H24.4824V16.1328C23.1934 16.2598 22.2168 16.6211 21.5625 17.1973C20.5762 18.0566 20.0879 19.1797 20.0879 20.5664C20.0879 21.3477 20.2539 22.041 20.5957 22.6563C20.9277 23.2715 21.4063 23.75 22.0313 24.0918C22.8711 24.5605 23.6914 24.873 24.4922 25.0195V31.2207C23.7305 31.1426 23.0664 30.752 22.5195 30.0586C22.1387 29.5703 21.8652 28.7988 21.7187 27.7539L19.7559 28.125C19.8242 29.1309 20.0879 29.9902 20.5273 30.6934C20.9668 31.3965 21.4941 31.9043 22.1094 32.2168C22.7148 32.5293 23.5156 32.7441 24.4824 32.8711V34.8145H25.6348V32.8418C27.002 32.7734 28.1152 32.2852 28.9648 31.3867ZM24.4922 23.1348C23.6035 22.8711 22.9785 22.5098 22.6074 22.0605C22.2363 21.6113 22.0508 21.0547 22.0508 20.3906C22.0508 19.7168 22.2656 19.1406 22.7051 18.6523C23.1445 18.1641 23.7402 17.8613 24.4922 17.7441V23.1348ZM27.5098 30.2246C27.0117 30.791 26.3867 31.1133 25.6348 31.2109V25.2832C26.6797 25.625 27.3828 26.0059 27.7344 26.4355C28.0859 26.8652 28.2617 27.4316 28.2617 28.1445C28.252 28.9648 28.0078 29.668 27.5098 30.2246Z" fill="#93A889"/>
</svg>
