<svg width="50" height="50" viewBox="0 0 50 50" fill="none" xmlns="http://www.w3.org/2000/svg">
<path d="M26.2261 18.8943C25.8569 17.8745 24.7308 17.3472 23.711 17.7164L17.3237 20.0292L12.0821 16.152L17.3392 18.2106L17.345 17.8456C17.4229 16.2599 16.22 14.8952 14.6286 14.7823L9.65855 14.4295C8.8441 14.3718 8.04263 14.6566 7.44732 15.2154C6.85201 15.7742 6.51705 16.5562 6.5232 17.3725L6.63179 31.6569H5.24146L3.12994 14.9837C3.02105 14.1229 2.23502 13.5133 1.37398 13.6225C0.513141 13.7315 -0.0962343 14.5177 0.0126524 15.3785L2.2981 33.4252C2.39752 34.2104 3.06539 34.799 3.8567 34.799H9.53033V41.2327L5.7983 44.2793C5.33472 44.6578 5.26548 45.3405 5.6441 45.8041C6.02261 46.2678 6.70533 46.3368 7.1689 45.9583L9.53023 44.0306V45.1188C9.53023 45.7173 10.0154 46.2025 10.6139 46.2025C11.2125 46.2025 11.6976 45.7173 11.6976 45.1188V44.0306L14.0589 45.9583C14.5229 46.3369 15.2054 46.2675 15.5837 45.8041C15.9623 45.3405 15.8931 44.6577 15.4295 44.2793L11.6975 41.2327V34.799H16.871C17.6558 34.799 18.3044 34.2227 18.4214 33.4707L18.799 33.5681L20.1504 44.1444C20.3155 45.4364 21.4967 46.3484 22.7868 46.1834C24.0778 46.0184 24.9907 44.8381 24.8257 43.547L23.272 31.3869C23.1499 30.4303 22.4572 29.6448 21.5235 29.4038L16.616 28.1368L16.7356 26.4504C15.9158 26.4693 15.1275 26.0992 14.6176 25.4578L9.74625 19.3095L15.8344 23.8128C16.3545 24.1974 17.0426 24.308 17.671 24.0805L25.0483 21.4093C26.068 21.0402 26.5954 19.914 26.2261 18.8943Z" fill="#93A889"/>
<path d="M13.1631 12.4665C15.557 12.4665 17.4976 10.5259 17.4976 8.13193C17.4976 5.73802 15.557 3.79736 13.1631 3.79736C10.7691 3.79736 8.82849 5.73802 8.82849 8.13193C8.82849 10.5259 10.7691 12.4665 13.1631 12.4665Z" fill="#93A889"/>
<path d="M48.3744 25.3794H26.3746C25.4769 25.3794 24.749 26.1072 24.749 27.005C24.749 27.9027 25.4769 28.6306 26.3746 28.6306H26.5913V45.119C26.5913 45.7176 27.0765 46.2027 27.675 46.2027C28.2735 46.2027 28.7587 45.7176 28.7587 45.119V28.6306H46.0986V45.119C46.0986 45.7176 46.5838 46.2027 47.1823 46.2027C47.7809 46.2027 48.266 45.7176 48.266 45.119V28.6306C49.3915 28.6306 50 27.8175 50 27.005C50 26.1072 49.2723 25.3794 48.3744 25.3794Z" fill="#93A889"/>
<path d="M37.8411 15.6364C37.3162 15.3488 36.6577 15.5412 36.3699 16.0661L33.102 22.0308C32.4906 22.0308 27.9727 22.0308 27.2255 22.0308C26.6269 22.0308 26.1418 22.5159 26.1418 23.1145C26.1418 23.131 26.1436 23.147 26.1443 23.1633C26.1701 23.739 26.6436 24.1982 27.2256 24.1982H33.7441C34.14 24.1982 34.5044 23.9822 34.6945 23.6352L38.2709 17.1075C38.5584 16.5827 38.3659 15.924 37.8411 15.6364Z" fill="#93A889"/>
</svg>
